<svg width="12" height="12" viewBox="0 0 12 12" fill="none" xmlns="http://www.w3.org/2000/svg">
<path fill-rule="evenodd" clip-rule="evenodd" d="M2 6C2 3.79086 3.79086 2 6 2C8.20914 2 10 3.79086 10 6C10 8.20914 8.20914 10 6 10C3.79086 10 2 8.20914 2 6ZM6 1C3.23858 1 1 3.23858 1 6C1 8.76142 3.23858 11 6 11C8.76142 11 11 8.76142 11 6C11 3.23858 8.76142 1 6 1ZM8 6.49995C8.27614 6.49995 8.5 6.2761 8.5 5.99995C8.5 5.72381 8.27614 5.49995 8 5.49995H4C3.72386 5.49995 3.5 5.72381 3.5 5.99995C3.5 6.2761 3.72386 6.49995 4 6.49995H8Z" fill="#2B2B2C"/>
</svg>
